<svg width="36" height="36" viewBox="0 0 36 36" fill="none" xmlns="http://www.w3.org/2000/svg">
<g clip-path="url(#clip0_421_3931)">
<path d="M35.9999 12.0222C35.792 12.5758 35.543 13.1242 34.9808 13.3831C34.5623 13.5753 34.0976 13.6727 33.6432 13.7649C33.4199 13.8111 33.3198 13.911 33.2094 14.0981C32.909 14.603 32.9758 14.9977 33.3377 15.4743C34.1207 16.4995 34.0027 17.5169 33.0913 18.4344C32.8012 18.724 32.5188 19.0238 32.2107 19.2929C31.5458 19.8773 30.6268 19.9644 29.8566 19.5339C29.7334 19.4647 29.5922 19.4057 29.5049 19.3032C29.0274 18.7471 28.5191 18.947 28.0133 19.234C27.9312 19.2801 27.8644 19.4006 27.8413 19.5005C27.7695 19.7953 27.7335 20.1002 27.6591 20.3924C27.4229 21.3022 26.6964 21.9019 25.7645 21.9403C25.2741 21.9608 24.7812 21.9608 24.2883 21.9403C23.3436 21.8993 22.5991 21.2791 22.3706 20.3668C22.3449 20.2643 22.3013 20.1592 22.3064 20.0592C22.3372 19.4236 21.9855 19.1289 21.4208 18.9649C21.2128 18.906 21.0793 18.9188 20.9099 19.0392C20.4632 19.3545 20.0345 19.7081 19.4568 19.7722C18.8689 19.8388 18.3273 19.7209 17.8857 19.3288C17.4672 18.9572 17.0616 18.56 16.6919 18.1397C16.1169 17.4862 16.045 16.5738 16.4686 15.8152C16.5482 15.6717 16.6252 15.5179 16.7382 15.4051C17.1155 15.0284 17.1258 14.644 16.8768 14.1827C16.7407 13.9341 16.6226 13.788 16.3223 13.7521C15.7036 13.6778 15.0951 13.5522 14.6382 13.0627C14.289 12.6885 14.0734 12.258 14.0606 11.7454C14.0477 11.2662 14.04 10.7844 14.0554 10.3051C14.0888 9.27743 14.7383 8.5137 15.7421 8.29843C15.9012 8.26511 16.063 8.22923 16.2273 8.21898C16.5764 8.19591 16.7459 8.0242 16.9102 7.70129C17.1489 7.22973 17.0128 6.91963 16.7382 6.54289C15.9269 5.4255 16.0245 4.44906 17.0026 3.47263C17.267 3.20866 17.5263 2.93443 17.8061 2.68584C18.507 2.0682 19.4466 1.98619 20.2501 2.46031C20.3502 2.51926 20.4683 2.57051 20.5402 2.65509C21.0151 3.20866 21.5234 3.00876 22.0266 2.72428C22.1113 2.67559 22.1806 2.55514 22.2063 2.45519C22.2679 2.21684 22.2936 1.97081 22.3424 1.73247C22.5169 0.873923 23.0253 0.31779 23.8673 0.0691963C23.9084 0.0563821 23.9418 0.0230654 23.9777 0C24.658 0 25.3357 0 26.0161 0C26.7272 0.21784 27.3202 0.58945 27.5821 1.32498C27.6899 1.62996 27.7489 1.958 27.7926 2.28091C27.8311 2.56282 27.9723 2.69353 28.2239 2.83448C28.7065 3.10358 29.0864 3.04976 29.4664 2.68071C29.5639 2.58589 29.6949 2.51926 29.8181 2.45006C30.5831 2.00669 31.5125 2.06307 32.1748 2.63971C32.5958 3.00619 32.9963 3.40856 33.3634 3.83142C33.9385 4.49519 34.0001 5.43063 33.5483 6.18666C33.3942 6.44807 33.2068 6.68897 33.0374 6.94269C32.9937 7.00933 32.9167 7.10159 32.9347 7.15284C33.0451 7.46038 33.1426 7.78586 33.3249 8.04727C33.4096 8.17029 33.674 8.19079 33.8615 8.21898C34.4622 8.30868 35.0552 8.44451 35.4429 8.94938C35.679 9.25692 35.8177 9.63622 35.9999 9.98477C35.9999 10.6639 35.9999 11.3431 35.9999 12.0222ZM32.031 5.13078C31.9669 5.03595 31.9206 4.94369 31.8513 4.87193C31.6254 4.63615 31.3815 4.41318 31.1607 4.17228C30.9708 3.96725 30.7936 3.97238 30.5806 4.13127C30.252 4.37731 29.908 4.60027 29.5768 4.84118C29.2199 5.09746 28.8605 5.12565 28.4549 4.93856C27.9261 4.6951 27.3818 4.47725 26.8376 4.26967C26.4499 4.12102 26.224 3.86218 26.1547 3.45469C26.0854 3.03951 26.0058 2.62433 25.9416 2.20915C25.9005 1.95031 25.7824 1.81192 25.5 1.82473C25.1843 1.84011 24.8685 1.83755 24.5527 1.82473C24.2755 1.81448 24.1523 1.93493 24.1138 2.20659C24.0598 2.60127 23.9726 2.98825 23.9135 3.38293C23.8468 3.83142 23.608 4.11846 23.1819 4.27992C22.6479 4.47982 22.1165 4.6951 21.5979 4.936C21.1923 5.12309 20.8329 5.09233 20.4786 4.83605C20.1474 4.59515 19.8034 4.37218 19.4748 4.12615C19.2592 3.96213 19.0795 3.96469 18.892 4.16715C18.6764 4.39781 18.4531 4.62334 18.222 4.83861C18.0166 5.02826 18.0218 5.20766 18.1809 5.42294C18.4299 5.76123 18.6661 6.11234 18.9075 6.45832C19.1385 6.79149 19.177 7.1349 19.0024 7.51677C18.756 8.05752 18.5275 8.60853 18.317 9.16466C18.1681 9.55421 17.9088 9.77718 17.5032 9.84637C17.0873 9.91813 16.674 9.99758 16.2581 10.0616C15.9937 10.1027 15.8679 10.2282 15.8833 10.5076C15.8987 10.8356 15.891 11.1637 15.8833 11.4917C15.8781 11.7352 15.9885 11.8531 16.2273 11.8889C16.6329 11.9505 17.0334 12.035 17.4364 12.0965C17.8831 12.1657 18.1732 12.3964 18.335 12.8269C18.5352 13.3626 18.7534 13.8931 18.9922 14.4108C19.1796 14.8157 19.1436 15.177 18.8895 15.5333C18.6507 15.8664 18.4248 16.2073 18.1809 16.5379C18.0218 16.7532 18.0192 16.9326 18.2246 17.1197C18.4556 17.3349 18.6815 17.5579 18.8946 17.7911C19.0846 17.9962 19.2643 17.9885 19.4774 17.8296C19.806 17.5861 20.1474 17.358 20.4812 17.1197C20.838 16.866 21.1974 16.8352 21.603 17.0223C22.1113 17.2581 22.6299 17.4733 23.1536 17.6656C23.5952 17.827 23.8442 18.1166 23.9135 18.5805C23.9751 18.9854 24.0598 19.3852 24.1215 19.7901C24.1574 20.031 24.2832 20.1336 24.5245 20.1284C24.8531 20.1207 25.1817 20.1156 25.5078 20.131C25.7901 20.1438 25.9082 20.008 25.9467 19.7466C26.0084 19.3416 26.0956 18.9418 26.1547 18.5369C26.2189 18.0961 26.4679 17.8321 26.8761 17.6758C27.4101 17.4708 27.9415 17.2555 28.46 17.0172C28.8657 16.8326 29.2251 16.8659 29.5793 17.1248C29.9105 17.3657 30.2545 17.5887 30.5831 17.8321C30.7988 17.991 30.9759 17.9962 31.1659 17.7911C31.3713 17.5656 31.5869 17.3503 31.8128 17.1453C32.0233 16.9531 32.049 16.7711 31.8719 16.5379C31.6228 16.2124 31.4021 15.8664 31.1633 15.5333C30.9066 15.177 30.8835 14.8157 31.0683 14.4108C31.3071 13.8905 31.5253 13.36 31.723 12.8269C31.8796 12.4118 32.1568 12.176 32.5881 12.1042C33.004 12.035 33.4173 11.953 33.8332 11.8915C34.072 11.8556 34.1824 11.7352 34.1772 11.4943C34.1695 11.1662 34.1644 10.8382 34.1798 10.5101C34.1926 10.2282 34.054 10.1078 33.7947 10.0668C33.3788 10.0001 32.9655 9.92069 32.5496 9.8515C32.1414 9.78486 31.8847 9.55677 31.7358 9.16979C31.5253 8.62391 31.3096 8.08315 31.0658 7.55264C30.8784 7.14772 30.9092 6.78636 31.1659 6.43269C31.4046 6.09952 31.6383 5.76379 31.8693 5.4255C31.9232 5.3358 31.9669 5.24098 32.031 5.13078Z" fill="#0071BB"/>
<path d="M12.451 36C12.1865 35.8873 11.9041 35.8001 11.6577 35.6541C10.9517 35.2389 10.5589 34.5905 10.4947 33.7909C10.4331 33.0272 10.1995 32.5172 9.37287 32.284C8.91591 32.1558 8.60784 32.0866 8.22019 32.4095C7.78377 32.776 7.31397 33.1092 6.72094 33.2117C5.98159 33.3398 5.31411 33.1886 4.75703 32.694C4.26669 32.2583 3.79689 31.797 3.36046 31.3101C2.62624 30.4925 2.53896 29.4238 3.10631 28.4833C3.32966 28.1142 3.60692 27.7759 3.8354 27.4069C3.89444 27.3095 3.90215 27.1455 3.8662 27.0353C3.78919 26.7918 3.62232 26.5714 3.57354 26.3254C3.46829 25.7974 3.14225 25.6283 2.64678 25.5822C2.26683 25.5488 1.87405 25.472 1.52234 25.331C0.575039 24.9491 0.071866 24.2136 0.0153873 23.1962C-0.0154192 22.658 0.00255129 22.1172 0.00768572 21.579C0.023089 20.2925 0.816357 19.3596 2.08713 19.1315C2.34128 19.0854 2.59287 19.0085 2.84702 19.0034C3.24237 18.9957 3.43748 18.8035 3.5145 18.437C3.53503 18.3345 3.56327 18.2243 3.62489 18.1423C4.03564 17.5964 3.86364 17.153 3.47342 16.661C3.17819 16.2868 2.95228 15.8229 2.81622 15.3642C2.60827 14.6594 2.79311 13.9777 3.27318 13.4267C3.74298 12.8911 4.25385 12.3836 4.78783 11.9121C5.51949 11.2662 6.60542 11.1868 7.4449 11.6814C7.82741 11.9069 8.18682 12.1709 8.5488 12.4323C8.7054 12.5451 8.83376 12.5784 9.02116 12.4836C9.34463 12.3221 9.68094 12.1837 10.0224 12.0633C10.2406 11.9864 10.3304 11.8659 10.3561 11.6353C10.3972 11.2765 10.4691 10.9177 10.5512 10.564C10.6616 10.0899 11.1237 9.77466 11.5704 9.84898C12.0428 9.92586 12.3945 10.3718 12.3277 10.8715C12.2404 11.5199 12.1198 12.1658 11.9991 12.809C11.9298 13.1883 11.6834 13.4139 11.3291 13.5548C10.6128 13.8393 9.89915 14.1289 9.19573 14.439C8.81835 14.6056 8.47435 14.6005 8.13548 14.3647C7.67595 14.0418 7.21642 13.7188 6.75432 13.3985C6.32559 13.1012 6.12022 13.1217 5.74284 13.4959C5.43477 13.8009 5.12671 14.1058 4.82377 14.4159C4.51828 14.7312 4.49774 14.9541 4.75189 15.3206C5.07023 15.7845 5.3937 16.2432 5.7223 16.6994C5.99186 17.071 5.99442 17.4375 5.80702 17.8527C5.50409 18.5216 5.21912 19.2007 4.9624 19.8901C4.80837 20.3079 4.55165 20.5565 4.11779 20.6308C3.54017 20.7307 2.96511 20.8307 2.39006 20.9409C1.99471 21.0178 1.84838 21.1946 1.84324 21.5918C1.83554 22.0711 1.83554 22.5529 1.84324 23.0322C1.84838 23.4191 2.01268 23.6139 2.39263 23.6857C2.94458 23.7882 3.49909 23.8856 4.05361 23.9727C4.53111 24.047 4.81351 24.3059 4.97781 24.7672C5.21912 25.4361 5.49638 26.0947 5.79418 26.7406C5.99186 27.166 5.99699 27.5427 5.71973 27.9246C5.39113 28.3808 5.06766 28.8421 4.75189 29.3059C4.50031 29.6724 4.52084 29.8928 4.82891 30.2106C5.13954 30.531 5.45531 30.8436 5.77364 31.1563C6.12278 31.4997 6.33073 31.5202 6.72864 31.246C7.18047 30.9333 7.63487 30.6207 8.079 30.2978C8.46151 30.021 8.83633 30.0184 9.26248 30.2158C9.91969 30.5182 10.5872 30.7975 11.2675 31.0461C11.7167 31.2101 11.9606 31.492 12.0351 31.9533C12.1224 32.4967 12.2199 33.0374 12.3175 33.5782C12.3945 34.0087 12.5742 34.1651 13.0029 34.1702C13.4727 34.1753 13.9399 34.1753 14.4097 34.1702C14.8102 34.1651 14.9899 34.0215 15.0669 33.632C15.1696 33.1143 15.2723 32.5992 15.3442 32.0764C15.4238 31.4997 15.7113 31.1691 16.2812 30.9923C16.9025 30.7975 17.5032 30.5259 18.0886 30.2388C18.5507 30.0133 18.9511 30.0159 19.3645 30.3234C19.7958 30.6463 20.2424 30.9487 20.684 31.2537C21.0691 31.5177 21.277 31.4972 21.6133 31.1691C21.9471 30.8411 22.2757 30.5079 22.6068 30.1747C22.861 29.921 22.879 29.6417 22.6787 29.3521C22.3527 28.8805 22.0267 28.4064 21.6904 27.9425C21.4054 27.5478 21.4028 27.166 21.6108 26.7277C21.9111 26.0947 22.1858 25.4489 22.4169 24.7903C22.5837 24.3136 22.8687 24.0496 23.3616 23.9753C23.8596 23.901 24.3526 23.801 24.848 23.7139C24.9738 23.6908 25.1047 23.6729 25.2331 23.6703C25.6824 23.6626 26.088 23.9958 26.1599 24.4263C26.2318 24.862 25.934 25.3387 25.4898 25.4463C25.1047 25.5412 24.7043 25.577 24.3192 25.6744C24.1883 25.7077 24.0522 25.8308 23.9803 25.9512C23.8648 26.1511 23.8391 26.4074 23.7082 26.5945C23.3796 27.0583 23.5028 27.4248 23.8365 27.8298C24.2601 28.3475 24.6247 28.9061 24.6375 29.6212C24.6478 30.2593 24.4783 30.8308 24.0419 31.2973C23.6106 31.7586 23.1716 32.2173 22.6993 32.6351C21.8444 33.3911 20.7816 33.4629 19.8137 32.858C19.4774 32.6479 19.1668 32.3942 18.8253 32.1917C18.7098 32.1225 18.5275 32.1122 18.3941 32.1481C18.181 32.2045 17.9936 32.366 17.7831 32.4044C17.2003 32.5095 17.0283 32.8734 16.9513 33.4193C16.8794 33.9293 16.7177 34.447 16.4892 34.9083C16.1811 35.5311 15.5573 35.795 14.9232 35.9975C14.0914 36.0001 13.2699 36 12.451 36Z" fill="#0071BB"/>
<path d="M13.6832 28.437C10.0609 28.4063 7.22666 25.2642 7.61175 21.684C7.94035 18.606 10.4896 16.2739 13.6062 16.2047C14.1453 16.1918 14.5792 16.5737 14.6023 17.0811C14.6254 17.5655 14.248 17.9884 13.7089 18.0166C12.646 18.0704 11.691 18.3805 10.8798 19.0904C9.52432 20.2744 9.05965 22.1453 9.70146 23.8547C10.3202 25.5 11.9221 26.5944 13.7037 26.5892C15.9475 26.5815 17.7805 24.8798 17.9525 22.6374C17.9807 22.276 17.9756 21.9044 18.2888 21.6404C18.5712 21.4021 18.8972 21.3277 19.2361 21.4815C19.5955 21.643 19.7906 21.9403 19.8009 22.3401C19.8753 25.1925 17.5186 27.9629 14.6921 28.3371C14.3584 28.3806 14.0195 28.4037 13.6832 28.437Z" fill="#0071BB"/>
<path d="M25.0432 15.3386C22.6326 15.3489 20.6841 13.4216 20.6661 11.0074C20.6482 8.58812 22.6044 6.61475 25.0227 6.61475C27.4205 6.61219 29.3844 8.57018 29.3895 10.9716C29.3921 13.3729 27.4487 15.3284 25.0432 15.3386ZM25.0124 13.5087C26.4013 13.5139 27.5411 12.3888 27.5591 10.9972C27.5745 9.61069 26.4193 8.44973 25.0124 8.43948C23.6415 8.43179 22.494 9.58763 22.4914 10.9767C22.4914 12.3734 23.6184 13.5036 25.0124 13.5087Z" fill="#0071BB"/>
</g>
<defs>
<clipPath id="clip0_421_3931">
<rect width="36" height="36" fill="white"/>
</clipPath>
</defs>
</svg>
