<svg width="32" height="36" viewBox="0 0 32 36" fill="none" xmlns="http://www.w3.org/2000/svg">
<g clip-path="url(#clip0_421_3926)">
<path d="M29.3589 27.7169L28.9707 27.0494C28.6789 26.55 28.3898 26.048 28.098 25.5487L27.8464 25.1161C28.9065 24.2777 29.1394 23.6982 29.0644 22.2563C29.0457 21.8985 29.0135 21.4285 28.9252 20.9666C28.7057 19.8317 28.9707 18.9799 29.7658 18.283C30.1352 17.9599 30.4458 17.5727 30.7215 17.2336C31.878 15.805 31.8833 14.5313 30.7376 13.1081C30.3681 12.6488 29.9585 12.2109 29.565 11.789L29.4017 11.6128C28.9841 11.1615 28.8154 10.6488 28.8797 9.99463L28.9065 9.72227C28.9814 8.93188 29.0617 8.11479 29.0564 7.30571C29.051 6.21092 28.4781 5.39116 27.4448 5.00131C26.7006 4.72093 26.0313 4.5447 25.3995 4.46459C24.2645 4.31773 23.5095 3.773 23.0277 2.74497C22.7546 2.16019 22.3611 1.55138 21.8605 0.931883C21.2126 0.133485 20.2998 -0.168251 19.2905 0.088091C18.9532 0.173538 18.5972 0.293698 18.1742 0.464593C17.7699 0.630147 17.3684 0.811722 16.9775 0.987957L16.6617 1.12948C16.0888 1.38582 15.5319 1.38849 14.9564 1.13215L14.4959 0.926542C14.1854 0.78769 13.8722 0.646168 13.559 0.509987C13.2645 0.384486 12.9995 0.272337 12.7157 0.181549C11.3424 -0.253698 10.2796 0.0961017 9.4711 1.25231C9.09096 1.79437 8.76436 2.37648 8.44847 2.94256L8.26376 3.271C7.93448 3.85311 7.48206 4.18422 6.83957 4.31239L6.65753 4.3471C5.9615 4.48595 5.24137 4.62748 4.54534 4.84109C3.18004 5.26032 2.50007 6.20024 2.52684 7.63682C2.54023 8.33909 2.62322 9.02801 2.72227 9.79436C2.82132 10.5687 2.63928 11.1669 2.14938 11.6822C1.64877 12.2056 1.12407 12.769 0.671651 13.3725C-0.230514 14.5794 -0.230514 15.7062 0.674328 16.9185C1.1321 17.53 1.65413 18.0908 2.14938 18.6115C2.64731 19.1348 2.82935 19.7223 2.72495 20.4592C2.65802 20.9399 2.59645 21.4419 2.54826 21.9519C2.44653 23.0147 2.50275 24.3124 3.75561 25.1028C3.74758 25.1188 3.73955 25.1348 3.72884 25.1508L3.44239 25.6475C2.50275 27.279 1.56043 28.9105 0.61811 30.5394C0.385207 30.9426 0.390561 31.3057 0.634172 31.6181C0.883137 31.9359 1.23383 32.0293 1.6809 31.8985C2.01553 31.7997 2.35284 31.7116 2.69282 31.6235L6.21581 30.6862L6.49155 31.7089C6.80209 32.8571 7.10727 33.9839 7.4071 35.1161C7.47403 35.3698 7.61323 35.8985 8.20218 35.9893C8.78578 36.0801 9.05884 35.6074 9.2034 35.3538C9.46575 34.8972 9.73078 34.4406 9.9958 33.9866C10.5526 33.028 11.1309 32.0347 11.6743 31.044C11.95 30.5394 12.2445 30.1976 12.8442 30.048C13.3903 29.9119 13.9043 29.6689 14.3995 29.4339C14.5976 29.3404 14.7958 29.2443 14.9965 29.1588C15.548 28.9185 16.0834 28.9185 16.6322 29.1588L16.8437 29.2523C17.0445 29.3404 17.2452 29.4312 17.4514 29.5086C17.7084 29.6074 17.9654 29.7036 18.225 29.7997C18.6186 29.9466 19.0148 30.0934 19.4056 30.251C19.4511 30.2697 19.5288 30.3391 19.5823 30.4299C20.5434 32.0801 21.4964 33.7329 22.4468 35.3885C22.5565 35.5781 22.8001 36.0026 23.2981 36.0026C23.3382 36.0026 23.3784 36 23.4239 35.9946C24.0182 35.9145 24.1627 35.3671 24.2163 35.1588C24.4251 34.3605 24.6393 33.562 24.8534 32.7637C24.9899 32.2536 25.1292 31.7463 25.2684 31.2336L25.4156 30.6889C25.4397 30.6942 25.4638 30.7022 25.4879 30.7076L26.5105 30.9799C27.6456 31.2817 28.778 31.5834 29.9104 31.8932C30.1031 31.9466 30.6171 32.0854 30.9865 31.6288C31.372 31.1535 31.0936 30.6809 30.9758 30.4806C30.4324 29.5594 29.897 28.6382 29.3589 27.7169ZM3.69671 28.7022C4.24551 27.7516 4.7943 26.8037 5.33507 25.8478C5.42609 25.6876 5.4475 25.6849 5.60277 25.7303C5.89457 25.8131 6.1944 25.8691 6.48352 25.9225C6.62005 25.9466 6.7539 25.9733 6.88775 26C7.48474 26.1255 7.91574 26.4352 8.19951 26.9532C8.28785 27.1135 8.37887 27.2737 8.46989 27.4339C8.57429 27.6155 8.6787 27.797 8.77775 27.9813C9.15789 28.6729 9.58622 29.3831 10.2956 29.8851L8.59303 32.8491L7.7926 29.8665C7.77921 29.8184 7.76582 29.7677 7.75512 29.7196C7.73905 29.6582 7.72299 29.5941 7.70693 29.5327C7.55969 29.004 7.28128 28.7503 6.84224 28.7503C6.72178 28.7503 6.58792 28.769 6.44336 28.809C5.68576 29.0093 4.92816 29.2123 4.17055 29.4125L3.12115 29.6929L3.69671 28.7022ZM6.33896 24.0908C6.00165 24.0534 5.66702 23.9679 5.29759 23.8665C4.44896 23.6368 4.23748 23.4526 4.2696 22.3044L4.31779 21.8264C4.35794 21.4152 4.40345 20.9452 4.45699 20.4753C4.58014 19.3511 4.24551 18.3498 3.46381 17.498L3.16666 17.1775C2.83203 16.8171 2.48669 16.4432 2.17347 16.0587C1.59791 15.3564 1.59523 14.9906 2.16277 14.283C2.51614 13.8398 2.84274 13.4793 3.1613 13.1775C4.26157 12.1388 4.66848 10.8411 4.40881 9.21493C4.32047 8.66753 4.29905 8.09076 4.27496 7.53535L4.27228 7.49797C4.25354 7.01733 4.48109 6.70758 4.94957 6.57407C5.70985 6.36045 6.29613 6.22427 6.85028 6.13348C8.28517 5.8985 9.29977 5.16419 9.95029 3.88515C10.2394 3.31907 10.5446 2.80104 10.8632 2.33909C11.2701 1.75164 11.5512 1.66085 12.2285 1.90385C12.7425 2.08809 13.2377 2.30438 13.6982 2.54203C15.0956 3.271 16.4662 3.271 17.8931 2.54203C18.4178 2.27501 18.9934 2.06673 19.5502 1.86646L19.6947 1.81306C19.9892 1.70625 20.2623 1.79437 20.4979 2.07207C20.6879 2.2937 20.8753 2.55805 21.0707 2.87581C21.2796 3.21226 21.483 3.57808 21.6972 3.98929C22.3075 5.16686 23.3061 5.88248 24.6633 6.11746C25.3219 6.23228 25.8573 6.3471 26.3526 6.48595C27.1905 6.71826 27.3538 6.93989 27.3109 7.81306C27.2868 8.34443 27.228 8.88649 27.1717 9.40985L27.1262 9.85044C27.0111 10.9639 27.3217 11.9359 28.0471 12.7343C28.1596 12.8571 28.272 12.9826 28.3871 13.1054C28.6173 13.3564 28.8476 13.6048 29.0698 13.8611C29.3053 14.1308 29.4981 14.3791 29.6587 14.6168C29.905 14.9826 29.905 15.3404 29.6534 15.7116C29.5034 15.9332 29.3241 16.1655 29.0885 16.4406C28.877 16.6862 28.6495 16.9452 28.4059 17.1749C27.3243 18.1869 26.9201 19.4739 27.1771 21.1054C27.2681 21.6902 27.2895 22.3097 27.3109 22.8598C27.327 23.3057 27.1236 23.5941 26.7059 23.7196C26.1732 23.8798 25.5521 24.056 24.931 24.1495C23.3569 24.3818 22.2674 25.1535 21.5954 26.5046C21.3411 27.0173 21.0386 27.5247 20.7013 28.0107C20.3185 28.5634 20.024 28.6568 19.3922 28.4325C18.8809 28.251 18.3509 28.0187 17.8155 27.7463C17.1489 27.4045 16.4743 27.2336 15.7996 27.2336C15.1223 27.2336 14.4424 27.4045 13.7651 27.749C13.2431 28.0133 12.6889 28.2296 12.0705 28.4619C11.6208 28.6328 11.2513 28.518 10.9729 28.1201L10.9274 28.0534C10.6544 27.6635 10.3706 27.2576 10.1805 26.8358C9.44969 25.2229 8.15667 24.2964 6.33896 24.0908ZM22.8724 27.8611L22.9152 27.7837C22.9474 27.7249 22.9822 27.6635 23.017 27.6048C23.0866 27.4873 23.1588 27.3645 23.2177 27.2336C23.5711 26.4833 24.1734 26.0534 25.0649 25.9225C25.2175 25.9012 25.3701 25.8584 25.5173 25.8157C25.7475 25.7516 26.0072 25.6795 26.1304 25.7356C26.2669 25.797 26.3927 26.0614 26.5025 26.2964C26.5614 26.4192 26.6176 26.542 26.6818 26.6488C27.1557 27.4633 27.6242 28.2777 28.0953 29.0948L28.446 29.7009L26.3981 29.1508C25.9858 29.0387 25.5735 28.9292 25.1613 28.8171C24.4572 28.6301 24.0583 28.8571 23.8709 29.5514C23.6461 30.3872 23.4212 31.2229 23.1963 32.0614L22.9848 32.8518L21.2796 29.9038C22.0372 29.3751 22.4601 28.6061 22.8724 27.8611Z" fill="#0071BB"/>
<path d="M15.808 24.9506C21.1861 24.9506 25.5765 20.5768 25.6006 15.1856C25.614 12.5821 24.5994 10.1228 22.7469 8.26167C20.8943 6.39785 18.4395 5.36714 15.8321 5.35913C15.8213 5.35913 15.808 5.35913 15.7972 5.35913C13.1978 5.35913 10.7457 6.37115 8.89047 8.20826C7.02189 10.0614 5.99122 12.526 5.98587 15.1455C5.97249 20.534 10.3628 24.9319 15.7732 24.9506C15.7865 24.9506 15.7972 24.9506 15.808 24.9506ZM15.7999 7.11614C15.808 7.11614 15.8133 7.11614 15.8213 7.11614C20.2385 7.12949 23.8391 10.7343 23.8418 15.1562C23.8445 17.2977 23.0065 19.3137 21.486 20.8304C19.9627 22.3498 17.9416 23.1856 15.7919 23.1856C15.7892 23.1856 15.7865 23.1856 15.7839 23.1856C13.6342 23.1829 11.613 22.3418 10.0925 20.8171C8.5719 19.2924 7.73666 17.2764 7.74469 15.1348C7.75808 10.7103 11.3694 7.11614 15.7999 7.11614Z" fill="#0071BB"/>
<path d="M9.98271 15.2257C10.842 16.0802 11.6987 16.9346 12.5554 17.7918L13.6877 18.9239C13.9019 19.1376 14.1643 19.3565 14.4801 19.3565C14.7987 19.3565 15.0664 19.1322 15.2833 18.9133C17.3633 16.8332 19.4407 14.7504 21.5181 12.6676L21.5663 12.6195C21.6466 12.5421 21.7376 12.4513 21.8072 12.3418C22.0535 11.9627 22.0214 11.5514 21.7189 11.2417C21.3976 10.9106 20.972 10.8732 20.5785 11.1429C20.4794 11.215 20.3991 11.3004 20.3241 11.3752L19.6602 12.0401C17.9683 13.7304 16.2791 15.4179 14.5926 17.1109C14.5497 17.1563 14.5123 17.2016 14.4828 17.2524L14.2312 16.996C13.9019 16.6623 13.6074 16.3659 13.313 16.0695L12.898 15.6529C12.3251 15.0788 11.7522 14.5047 11.1713 13.936C10.917 13.6876 10.5984 13.5808 10.2959 13.6422C10.0255 13.6983 9.8087 13.8826 9.69626 14.1522C9.46604 14.713 9.85421 15.1002 9.98271 15.2257Z" fill="#0071BB"/>
</g>
<defs>
<clipPath id="clip0_421_3926">
<rect width="31.5918" height="36" fill="white"/>
</clipPath>
</defs>
</svg>
